<svg width="64" height="62" viewBox="0 0 64 62" fill="none" xmlns="http://www.w3.org/2000/svg">
<line x1="19.324" y1="4.07747" x2="15.0282" y2="4.07747" stroke="black" stroke-width="3"/>
<line x1="15.0281" y1="16.1056" x2="7.29568" y2="16.1056" stroke="black" stroke-width="3"/>
<line x1="54.5493" y1="16.1056" x2="46.8169" y2="16.1056" stroke="black" stroke-width="3"/>
<line x1="15.0281" y1="45.3169" x2="7.29568" y2="45.3169" stroke="black" stroke-width="3"/>
<line x1="44.2395" y1="57.3451" x2="39.0846" y2="57.3451" stroke="black" stroke-width="3"/>
<line x1="46.8169" y1="4.07747" x2="41.662" y2="4.07747" stroke="black" stroke-width="3"/>
<line x1="15.0281" y1="6.65493" x2="12.4506" y2="6.65493" stroke="black" stroke-width="3"/>
<line x1="49.3943" y1="6.65493" x2="46.8168" y2="6.65493" stroke="black" stroke-width="3"/>
<line x1="42.5212" y1="9.2324" x2="39.9438" y2="9.2324" stroke="black" stroke-width="3"/>
<line x1="39.9436" y1="6.65493" x2="37.3661" y2="6.65493" stroke="black" stroke-width="3"/>
<line x1="37.3662" y1="4.07747" x2="34.7887" y2="4.07747" stroke="black" stroke-width="3"/>
<line x1="27.0564" y1="4.07747" x2="24.4789" y2="4.07747" stroke="black" stroke-width="3"/>
<line x1="25.3381" y1="5.79578" x2="22.7607" y2="5.79578" stroke="black" stroke-width="3"/>
<line x1="22.7605" y1="8.37324" x2="19.3239" y2="8.37324" stroke="black" stroke-width="3"/>
<line x1="51.9719" y1="9.2324" x2="49.3945" y2="9.2324" stroke="black" stroke-width="3"/>
<line x1="53.6902" y1="10.9507" x2="51.1127" y2="10.9507" stroke="black" stroke-width="3"/>
<line x1="56.2676" y1="12.669" x2="53.6901" y2="12.669" stroke="black" stroke-width="3"/>
<line x1="12.4507" y1="8.37324" x2="9.87322" y2="8.37324" stroke="black" stroke-width="3"/>
<line x1="9.87329" y1="10.9507" x2="7.29583" y2="10.9507" stroke="black" stroke-width="3"/>
<line x1="7.29565" y1="13.5282" x2="4.71819" y2="13.5282" stroke="black" stroke-width="3"/>
<line x1="7.29565" y1="47.0352" x2="4.71819" y2="47.0352" stroke="black" stroke-width="3"/>
<line x1="9.87329" y1="49.6127" x2="7.29583" y2="49.6127" stroke="black" stroke-width="3"/>
<line x1="12.4507" y1="52.1901" x2="9.87322" y2="52.1901" stroke="black" stroke-width="3"/>
<line x1="15.0281" y1="54.7676" x2="12.4506" y2="54.7676" stroke="black" stroke-width="3"/>
<line x1="22.7605" y1="52.1901" x2="20.183" y2="52.1901" stroke="black" stroke-width="3"/>
<line x1="22.7605" y1="52.1901" x2="20.183" y2="52.1901" stroke="black" stroke-width="3"/>
<line x1="25.3381" y1="54.7676" x2="22.7607" y2="54.7676" stroke="black" stroke-width="3"/>
<line x1="27.9155" y1="57.3451" x2="25.3381" y2="57.3451" stroke="black" stroke-width="3"/>
<line x1="37.3662" y1="57.3451" x2="34.7887" y2="57.3451" stroke="black" stroke-width="3"/>
<line x1="39.9436" y1="54.7676" x2="37.3661" y2="54.7676" stroke="black" stroke-width="3"/>
<line x1="39.9436" y1="54.7676" x2="37.3661" y2="54.7676" stroke="black" stroke-width="3"/>
<line x1="50.2534" y1="59.9225" x2="47.676" y2="59.9225" stroke="black" stroke-width="3"/>
<line x1="52.8311" y1="57.3451" x2="50.2536" y2="57.3451" stroke="black" stroke-width="3"/>
<line x1="55.4084" y1="54.7676" x2="52.831" y2="54.7676" stroke="black" stroke-width="3"/>
<line x1="57.9858" y1="52.1901" x2="55.4084" y2="52.1901" stroke="black" stroke-width="3"/>
<line x1="60.5635" y1="49.6127" x2="57.986" y2="49.6127" stroke="black" stroke-width="3"/>
<line x1="62.2817" y1="47.8944" x2="59.7043" y2="47.8944" stroke="black" stroke-width="3"/>
<line x1="62.5" y1="61" x2="62.5" y2="45.5352" stroke="black" stroke-width="3"/>
<line x1="64" y1="46.1761" x2="47.6761" y2="46.1761" stroke="black" stroke-width="3"/>
<line x1="42.5212" y1="52.1901" x2="39.9438" y2="52.1901" stroke="black" stroke-width="3"/>
<line x1="22.7605" y1="57.3451" x2="15.0281" y2="57.3451" stroke="black" stroke-width="3"/>
<line x1="39.9436" y1="59.9225" x2="22.7605" y2="59.9225" stroke="black" stroke-width="3"/>
<line x1="41.6619" y1="1.5" x2="20.183" y2="1.5" stroke="black" stroke-width="3"/>
<line x1="44.2395" y1="42.7394" x2="15.0282" y2="42.7394" stroke="black" stroke-width="3"/>
<line x1="46.8169" y1="18.6831" x2="15.0282" y2="18.6831" stroke="black" stroke-width="3"/>
<line x1="58.845" y1="30.7113" x2="2.14075" y2="30.7113" stroke="black" stroke-width="3"/>
<line x1="4.5" y1="14.6056" x2="4.5" y2="19.7606" stroke="black" stroke-width="3"/>
<line x1="57.7676" y1="13.7465" x2="57.7676" y2="19.7606" stroke="black" stroke-width="3"/>
<line x1="4.5" y1="41.2394" x2="4.5" y2="46.3944" stroke="black" stroke-width="3"/>
<line x1="19.1057" y1="42.9577" x2="19.1057" y2="51.5493" stroke="black" stroke-width="3"/>
<line x1="43.1619" y1="42.9577" x2="43.1619" y2="51.5493" stroke="black" stroke-width="3"/>
<line x1="43.1619" y1="9.45071" x2="43.1619" y2="18.0423" stroke="black" stroke-width="3"/>
<line x1="19.1057" y1="9.45071" x2="19.1057" y2="18.0423" stroke="black" stroke-width="3"/>
<line x1="1.92261" y1="19.7606" x2="1.92261" y2="41.2394" stroke="black" stroke-width="3"/>
<line x1="1.92261" y1="19.7606" x2="1.92261" y2="41.2394" stroke="black" stroke-width="3"/>
<line x1="60.345" y1="19.7606" x2="60.345" y2="41.2394" stroke="black" stroke-width="3"/>
<line x1="45.7395" y1="19.7606" x2="45.7395" y2="41.2394" stroke="black" stroke-width="3"/>
<line x1="16.5281" y1="19.7606" x2="16.5281" y2="41.2394" stroke="black" stroke-width="3"/>
<line x1="31.1338" y1="2.57747" x2="31.1338" y2="58.4225" stroke="black" stroke-width="3"/>
</svg>
