<svg width="33" height="41" viewBox="0 0 33 41" fill="none" xmlns="http://www.w3.org/2000/svg">
<path d="M14.5 27.5V24.5V24H16.5V25H20.5V26.5H19V29H18V30H16.5V32H15.5V27.5H14.5Z" fill="black"/>
<path d="M12.5 23.5H13.5V23V22.5M14.5 24.5V27.5H15.5V32H16.5V30H18V29H19V26.5H20.5V25H16.5V24H14.5V24.5Z" stroke="black"/>
<path d="M23.5 21V19.5H26V23.5H24.5V21H23.5Z" fill="black" stroke="black"/>
<path d="M25 2V8.5H32.5V40H1V0.5H25V2ZM25 2H26H27V3H28.5V4.5H29.5V6H31.5V8" stroke="black"/>
<path d="M7 19.5V20M7 20V26H8.5V28.5H9.5V30H11V31.5H13V32.5H20V31H23V30V29.5H24H24.5H25V26.5H26V19.5H25V17V16H22V14.5H19.5V13H13V14.5H10.5V15.5H9H8V18.5H7V20Z" stroke="black"/>
<path d="M10.5 16H9.5V15.5L13.5 15V16.5H15V15.5H16V16.5H18V18.5H16.5V21.5H15.5V20H12V20.5L10.5 20V16Z" fill="black"/>
<path d="M9.5 16H10.5V20L12 20.5V22V20H15.5V21.5H16.5V18.5H18V16.5H16V15.5H15V16.5H13.5V15L9.5 15.5V16Z" stroke="black"/>
</svg>
