<svg width="33" height="41" viewBox="0 0 33 41" fill="none" xmlns="http://www.w3.org/2000/svg">
<path d="M15.5 27.5V24.5V24H17.5V25H21.5V26.5H20V29H19V30H17.5V32H16.5V27.5H15.5Z" fill="black"/>
<path d="M13.5 23.5H14.5V23V22.5M15.5 24.5V27.5H16.5V32H17.5V30H19V29H20V26.5H21.5V25H17.5V24H15.5V24.5Z" stroke="black"/>
<path d="M23.5 21V19.5H26V23.5H24.5V21H23.5Z" fill="black" stroke="black"/>
<path d="M25 2V8.5H32.5V40H1V0.5H25V2ZM25 2H26H27V3H28.5V4.5H29.5V6H31.5V8" stroke="black"/>
<path d="M7 19.5V20M7 20V26H8.5V28.5H9.5V30H11V31.5H13V32.5H20V31H23V30V29.5H24H24.5H25V26.5H26V19.5H25V17H24V16H22V14.5H19.5V13H13H11.5V13.5V14.5H9.5V16.5H8V18.5H7V20Z" stroke="black"/>
<path d="M12.5 17H11.5V16.5H15.5V17.5H17V16.5H18V17.5H20V19.5H18.5V22H17V20.5H13.5H12.5V17Z" fill="black"/>
<path d="M13.5 20.5H12.5V17H11.5V16.5H15.5V17.5H17V16.5H18V17.5H20V19.5H18.5V22H17V20.5H13.5ZM13.5 20.5V22.5" stroke="black"/>
</svg>
